<?xml version="1.0" encoding="utf-8"?>
<!-- Generated by IcoMoon.io -->
<!DOCTYPE svg PUBLIC "-//W3C//DTD SVG 1.1//EN" "http://www.w3.org/Graphics/SVG/1.1/DTD/svg11.dtd">
<svg version="1.1" xmlns="http://www.w3.org/2000/svg" xmlns:xlink="http://www.w3.org/1999/xlink" width="100" height="100" viewBox="0 0 100 100">
<g>
	<line stroke-width="1" x1="" y1="" x2="" y2="" stroke="#449FDB" opacity=""></line>
</g>
	<path d="M50 18.75c-5.364 0-10.546 0.846-15.4 2.514-4.562 1.568-8.624 3.784-12.073 6.586-6.466 5.254-10.027 12.010-10.027 19.025 0 3.935 1.093 7.752 3.247 11.343 2.222 3.703 5.565 7.088 9.667 9.79 2.964 1.952 4.959 5.073 5.486 8.583 0.176 1.17 0.286 2.352 0.329 3.528 0.729-0.605 1.44-1.254 2.137-1.951 2.359-2.359 5.545-3.661 8.838-3.661 0.524 0 1.051 0.033 1.578 0.1 2.048 0.26 4.14 0.393 6.218 0.393 5.365 0 10.546-0.846 15.4-2.514 4.562-1.568 8.624-3.784 12.073-6.586 6.466-5.254 10.027-12.010 10.027-19.025s-3.561-13.771-10.027-19.025c-3.449-2.803-7.511-5.019-12.073-6.586-4.854-1.668-10.035-2.514-15.4-2.514zM50 6.25v0c27.614 0 50 18.188 50 40.625s-22.386 40.625-50 40.625c-2.652 0-5.255-0.169-7.795-0.493-10.74 10.74-23.56 12.666-35.955 12.949v-2.629c6.693-3.279 12.5-9.252 12.5-16.078 0-0.953-0.074-1.888-0.211-2.802-11.308-7.448-18.539-18.824-18.539-31.573 0-22.437 22.386-40.625 50-40.625z" fill="#FF7A00"></path>
</svg>
